# xmcd
#
# Track frame offsets: 
#        182
#        10385
#        20910
#        33835
#        46155
#        60802
#        76202
#        90715
#        102392
#        111425
#        126772
#        137715
#        147212
#        159975
#        176460
#        192977
#        205850
#        217457
#        229475
#        244095
#        255097
#        267670
#
# Disc length: 3721 seconds
#
# Revision: 2
# Processed by: cddbd v1.5.2PL0 Copyright (c) Steve Scherf et al.
# Submitted via: ExactAudioCopy v1.3
#
DISCID=380e8716
DTITLE=George Hamilton IV - The Best Of George Hamilton IV
DYEAR=1996
DGENRE=Country
TTITLE0=Abilene (1963)
TTITLE1=Break My Mind (1967)
TTITLE2=Early Morning Rain (1969)
TTITLE3=Steel Rails Blues (1969)
TTITLE4=Urge For Going (1966)
TTITLE5=Canadian Pacific (1969)
TTITLE6=Second Cup Of Coffee (1973)
TTITLE7=Anyway (1970)
TTITLE8=I'm Gonna Be A Country Boy Again (1969)
TTITLE9=Both Sides Now (1969)
TTITLE10=My Nova Scotia Home (1970)
TTITLE11=Travelin' Light (1972)
TTITLE12=10 Degrees and Getting Colder (1972)
TTITLE13=Streets Of London (1971)
TTITLE14=Everything Is Beautiful (1971)
TTITLE15=Carolina In My Mind (1969)
TTITLE16=She's A Little Bit Country (1970)
TTITLE17=West Texas Highway (1971)
TTITLE18=Together Alone (1973)
TTITLE19=A Rose And A Baby Ruth (1964)
TTITLE20=Crystal Chandeliers (1976)
TTITLE21=Country Music In My Soul (1971)
EXTD=
EXTT0=
EXTT1=
EXTT2=
EXTT3=
EXTT4=
EXTT5=
EXTT6=
EXTT7=
EXTT8=
EXTT9=
EXTT10=
EXTT11=
EXTT12=
EXTT13=
EXTT14=
EXTT15=
EXTT16=
EXTT17=
EXTT18=
EXTT19=
EXTT20=
EXTT21=
PLAYORDER=
